<?xml version="1.0" encoding="utf-8"?>
<!-- Generator: Adobe Illustrator 24.1.2, SVG Export Plug-In . SVG Version: 6.00 Build 0)  -->
<svg version="1.1" id="Layer_1" xmlns="http://www.w3.org/2000/svg" xmlns:xlink="http://www.w3.org/1999/xlink" x="0px" y="0px"
	 viewBox="0 0 2692.9 212.6" style="enable-background:new 0 0 2692.9 212.6;" xml:space="preserve">
<style type="text/css">
	.st0{fill:#BF0005;}
</style>
<g id="g56" transform="translate(719.0265,735.7027)">
	<path id="path58" class="st0" d="M1091-700.1c-7.5,0.6-14.9,1.3-22.4,1.9c-2.8,0.2-4.6,1.6-5.5,3.4c-30.7-4.3-61.4-8.6-92.2-12.9
		C1010.9-705.2,1050.9-702.6,1091-700.1 M873.3-695.8c-19.5-0.7-39-1.7-58.6-2.4c18.1-2.5,36.3-5,54.4-7.4
		c39.6,5.6,79.3,11.1,118.9,16.7c-7.4,0.7-14.8,1.7-22.1,3.4c-19.9,4.6-40.6,0-60.6,3.7c-44.5,8.5-89.7,3.7-134.6,3.9c0,0,0,0,0,0h0
		c-19.6-1.2-39.3-2.5-58.9-3.7c1.5-1.5,3.1-2.5,4.7-3.2c10.9-1.5,21.9-3,32.8-4.5C790.7-689.2,831.9-691.9,873.3-695.8 M810-713.9
		c-35.6,4.9-71.3,9.7-106.9,14.6c-86.8-0.4-173.7-1.2-260.5-2.8c-62.1-1.1-124.2,1.2-186.4,1.6c-36.2,0.2-72.3-0.2-108.5-0.5
		c-45.1-0.4-90.1,0.9-135.1,0.5c-1.5,0.7-3.1,0.9-4.7,1c1.6-0.3,3.2-0.5,4.7-1c-12.3-2.8-25.6,0.8-37.5-4.7
		c37.9-1.1,75.7-2.3,113.6-3.4v0v0c31.7,2.5,63.2-1.5,94.8-1.7c4.2,0,8.6-0.4,12.8-1.4c6-0.1,12-0.1,18-0.2
		c14.2,3.8,28.9,1.9,43.4,1.4c1.3,0,2.6-0.9,3.9-1.9c10.3-0.1,20.6-0.2,31-0.4c12.3,1.9,24.4,2.3,36.6,0.3c1.9-0.3,3.8-0.5,5.7-0.8
		c88.8-1,177.7-2,266.5-3c-0.6,0.5-1.3,1.2-1.9,2.2c63.4,1.9,126-0.1,189.8-2.6C796.1-715.8,803.1-714.9,810-713.9 M-53.3-566.1
		c-25.1,0.3-50.1,0.6-75.2,0.9c-5.6-0.9-11.2-1.6-16.9-1.7c-13.3-0.1-26.6,0.2-39.9,1.2c-9.7,0.7-19.5,1.2-29.2,1.5l-35.4,0.4
		c-4.8,0-9.6,0-14.4,0c26.6-4.3,53.1-8.5,79.7-12.8c9.6,1.7,19.8-0.6,30.4-1.1c-0.9-1.5-1.9-2.5-3-3.3c14.8-2.4,29.7-4.8,44.5-7.1
		c4.9,0.7,9.5,2.8,13.1,7.8c2.6,3.6,9,3.3,14.1,3.1c6.1,2.6,11.2,6.9,19.1,6.5C-60.6-570.9-53.9-571.3-53.3-566.1 M1961.8-667.4
		c-13.8,0-28.1-0.4-40,7.6c-9.2,6.2-20.7,4.4-31.1,6.3c-4.4,0.8-9.1,0-11.9,3.6c-14.5-0.1-29.4,0-47-2.5c11.6-4.6,20.4-1.9,28.6-5.4
		c-20.7-0.7-41.5-0.7-62.1-2.3c-5-0.4-10-0.7-15-1.1c4.7-0.7,8.7-2.6,10.5-8.8c1.1-3.8,6.2-2.9,9.8-3.5c7.7-1.2,15.4-2.3,23.1-3.4
		c-0.2-1.1-0.4-2.1-0.7-3.2c-17.2,1.2-34.6,1.3-51.6,3.7c-38.2,5.5-76.8,4.5-115.3,6.2c-5.8,0.3-12.2-1.6-16.5,3.6
		c-8.7,0-17.5,0.1-26.3,0.3c-11.3,0.2-22.8-1.4-33.8,2.2c-9.7-0.1-19.5-0.2-29.2-0.3l0,0l0,0c-6.8-0.7-13.5-0.6-20,0.9
		c-1.2,0.2-2.5,0.4-3.7,0.9c-22.1,0.4-44.1,1.7-66,3.7c0-0.8,0-1.5,0-2.3c-4.8-0.7-9.8,0.1-14.1-2.9c-13.2-9.1-27.4-4.7-42.7-4
		c3.9,6.6,11.1,5.1,14.8,8.7l0,0l0,0c-14.3,0.6-28.6,1.4-42.9,1.9c-9.9,0.3-19.7,1.4-26.5-8c-2.6-3.5-9-3.3-14.1-3.1
		c-6.1-2.6-11.2-6.9-19.1-6.5c-7.3,0.4-16.4,1-11.9-10.4c1.1-2.7-3.8-3.7-6.8-4.5c-14.2-3.6-28.7-4.4-43.3-4.1
		c-24.5,0.6-49.1,1.4-73.6,2.2c6-0.5,12.1-1,18.1-1.5c7.2-0.6-81.5-15.1-155.7-23.9h159.3c14.2,0-345.8-18.4-405.7-17.7
		c-13.7-0.9-580.1,6.5-846,9.5c-4.3,0-6.9,2.8-7.9,6c-24.5-0.3-48.9-3-73.4-2.9c-56.4,0.2-112.8,2.1-169.3,2.1
		c-25.4,0-50.5,2.7-75.7,3.6c-21,0.7-42.7,3-63.8,6.2c-36.3,5.5-73,7-109.6,8.9c-17.8,0.9-35.4,1.5-52.6,5.9
		c-6,1.5-12.5,1.7-18.8,1.9c-32.3,0.8-64.6,1.5-96.9,2.3c-1,0-2,1.1-5.1,3c16.7,3.7,32,4,47.2,4.6c17.1,0.7,34.3,0.3,51,4.5
		c4.7,3.5,5.5,8.5,6.8,13.3c-14.2,0.1-18.7,5.2-6.8,8.1c-2.1,4.5-7.1,2.6-9.6,5h0c-4.7-0.1-9.5-0.1-14.2-0.2c-1,0.6-2,0.9-3.1,1.2
		c1-0.4,2.1-0.6,3.1-1.2c-7-0.8-24.5,2.6-26.6,2.8c-7.9-0.3-6.6,1.4-0.1,3.1c3.1,5.1,12.4,16.4,22.1,27c-3.8,0.4-7.6,0.6-11.4,0.5
		c-8.4-0.5-8.8,5.7-4.9,13.2c8.9,8.4,20,10.7,32.6,11c16.9,0.3,34-0.3,54.7,2.5c-11.6,4.6-20.4,1.9-28.6,5.4
		c20.7,0.7,41.5,0.7,62.1,2.3c5,0.4,10,0.7,15,1.1c-4.7,0.7-8.7,2.6-10.5,8.8c-1.1,3.8-6.2,2.9-9.8,3.5c-7.7,1.2-15.4,2.3-23.1,3.4
		c0.2,1.1,0.4,2.1,0.7,3.2c17.2-1.2,34.6-1.3,51.6-3.7c38.2-5.5,76.8-4.5,115.3-6.2c5.8-0.3,12.2,1.6,16.5-3.6
		c8.8,0,17.5-0.1,26.3-0.3c11.3-0.2,22.8,1.4,33.8-2.2c9.7,0.1,19.5,0.2,29.2,0.3l0,0c0,0,0,0,0,0c6.8,0.7,13.5,0.6,20-0.9
		c1.2-0.2,2.5-0.4,3.7-0.9c14-0.2,28-0.9,41.9-1.8c-46.1,7.4-92.1,14.8-138.2,22.2c-2,0-4,0-6,0c-6.5-0.1-12.9,0.3-19.3,0.9
		c-39.8,0.5-79.7,1-119.5,1.5c0-0.3,0-0.7-0.3-1.2c-0.7-1.2-2.8-1.8-3.9-2.4c-2.7,0.3-4.8,1-4.7,2.8c0,0.3,0.1,0.6,0.2,0.8
		c-7.2,0.1-14.4,0.2-21.6,0.3c-0.7-0.5-1.4-1.1-2.2-1.4c-0.3-0.1-1.2,0.2-1.4,0.5c-0.3,0.3-0.4,0.6-0.4,0.9c-9,0.1-18,0.2-26.9,0.3
		c-6.5-0.9-13-1.1-19.5,0.2c-2.1,0-4.1,0.1-6.2,0.1c-2,0-3.6,0.6-4.9,1.6c-8.5-0.1-17-0.2-25.5-0.3c0,0,0,0,0,0c0,0,0,0,0,0
		c-16.6-0.2-33.4-3.9-49.8,0.9c-0.5,6.6,4.6,7.2,10,7c14.5-0.3,29.5,0.8,43.5-1.8c6.3-1.2,108.8,7.8,150.4,7.3
		c-5.5,4,155.8,10.8,231.5,8.8l680.9-18.1c-17.2,1.1-34.5,2.5-51.7,4.2c32.6,1.1,65.1,3.1,97.7,3.2c111,0.3,222,1.1,333.1,3.1
		c62.1,1.1,124.2-1.2,186.4-1.6c36.2-0.2,72.3,0.2,108.5,0.5c45.1,0.4,90.1-0.9,135.1-0.5c1.5-0.7,3.1-0.9,4.7-1
		c-1.6,0.3-3.1,0.5-4.7,1c12.3,2.8,25.6-0.8,37.5,4.7c-37.9,1.1-75.7,2.3-113.6,3.4l0,0l0,0c-31.7-2.5-63.2,1.5-94.8,1.7
		c-6.8,0-14,0.9-20.2,4.1v0c-1.2-0.1-2.4-0.1-3.6-0.2h0c-16.3-6.8-33.5-4.3-50.4-3.7c-2.6,0.1-4.9,3.1-7.4,4.7
		c-8.8-0.7-17.7-1-26.4-2.4c-12.6-2-25-2.5-37.7-0.5c-23.2,3.8-46.6,2.4-70,1.9c-6.7-0.2-13.6-1-20,1.6
		c75.5,6.9,151.2,2.6,226.8,5.2c41.6-2,83.1,0.6,124.6,1.3c5.7,0.1,11.3-0.1,16.6-2.3c34.9-0.4,69.8-1.3,104.7-1
		c24.7,0.2,49.4,3,74.1,2.9c56.4-0.2,112.8-2.1,169.3-2.1c25.4,0,50.5-2.7,75.7-3.6c21-0.7,42.7-3,63.8-6.2c36.3-5.5,73-7,109.6-8.9
		c17.8-0.9,35.4-1.5,52.6-5.9c6-1.5,12.5-1.7,18.8-1.9c32.3-0.8,20.5-10.2,3.8-14.3c-4.7-3.5-5.5-8.5-6.8-13.3
		c14.2-0.1,18.7-5.2,6.8-8.1c2.1-4.5,7.1-2.6,9.6-5h0c4.7,0.1,9.5,0.1,14.2,0.2c1-0.6,2-0.9,3.1-1.2c-1,0.4-2.1,0.6-3.1,1.2
		c7,0.8,14,1.7,20.3-2.4c2.1-0.1,4.3-0.3,6.4-0.4c0.9,0,1.7,0,2.4,0c6.4,1.6,13.5,1.8,17.5-3.5c8.9-11.8,20.8-22.7,21.9-37.9
		c0.5-6.5,4.2-11.6,5.9-17.5C1975-662.7,1971.9-667.4,1961.8-667.4"/>
</g>
</svg>
