<?xml version="1.0" encoding="utf-8"?>
<!-- Generator: Adobe Illustrator 24.1.2, SVG Export Plug-In . SVG Version: 6.00 Build 0)  -->
<svg version="1.1" id="Layer_1" xmlns="http://www.w3.org/2000/svg" xmlns:xlink="http://www.w3.org/1999/xlink" x="0px" y="0px"
	 viewBox="0 0 1275.6 1275.6" style="enable-background:new 0 0 1275.6 1275.6;" xml:space="preserve">
<style type="text/css">
	.st0{stroke:#FFFFFF;stroke-width:3;}
	.st1{stroke:#FFFFFF;stroke-width:2;}
</style>
<g>
	<path d="M247.4,627.4c0.8,1.2,0.6,2.4,0.6,3.4c0.4,16.5,0.4,33,0.5,49.5c0,4.8,0,9.6,0,14.4c0.2,15.2,0.5,30.3,0.8,45.5
		c0,1.6,0.1,3.4-0.9,6.4C247.9,705.9,246.9,667,247.4,627.4z"/>
	<path d="M250.9,884.2c0-0.2,0.1-0.5,0.2-0.6c0.4-0.3,0.1,1.2,0.3-0.5c0.4,23,1.9,45.3,0.5,67.8c-0.4-18.8-0.8-37.5-1.2-56.3
		C250.6,891.1,250.8,887.6,250.9,884.2z"/>
	<path d="M247.2,922.2c-0.6-5.5-0.4-23.6,0.4-33.9C248.6,903.5,248.4,916.8,247.2,922.2z"/>
	<path d="M249.8,808.2c0.9,9.9,0.9,19.7,0.2,29.6C250.2,828,249.1,818.2,249.8,808.2z"/>
	<path d="M239.5,1041.4c-0.1,5.7-0.2,11.5-0.3,17.2C239.3,1052.8,238.7,1047,239.5,1041.4z"/>
	<path d="M248.8,752.6c0.2-0.3,0.3-0.1,0.3,0.7c0,0.2-0.1,0.4-0.2,0.6c-0.1-0.2-0.1-0.3-0.2-0.5C248.7,753,248.7,752.7,248.8,752.6z
		"/>
	<path d="M221.1,297c0.2,5.6,0.2,11.2,0.2,16.8c0,5.6-0.7,11-0.9,16.6c-1.6-30.3-1.3-60.7-1.7-91.1c-0.4-30.6-1.4-61.1-1.2-91.8
		c0.9,14.9,2,29.7,2.3,44.8c0.1,7.7,0.8,15.1,0.7,23c-0.1,15.4,0.2,30.9,0.2,46.4C220.7,273.6,220.7,285.3,221.1,297z"/>
	<path d="M214.6,215.2c0.2,35.7,1,71.4,0.3,107.2c0.6,5.7,0.6,22-0.2,26.8c-0.6-5.8-0.8-10.9-0.5-16.2l0,0l0,0c0-8,0.4-16.1,0.1-24
		c-0.5-13-0.1-26.1-0.3-39.2c-0.2-12.2-0.4-24.5-0.6-36.8c-0.1-14.3-1.5-28.6-0.2-43c0.1-1.5,0-3.2,0-4.8
		c-0.3-11.7-0.7-23.4-0.9-35.1c-0.1-4.9-0.2-10,0.2-16c1,3.3,0.9,6.3,1,9C213.9,167.2,214.5,191.2,214.6,215.2z"/>
	<path d="M211.5,393.4c0,0.2-0.1,0.5-0.2,0.6c-0.4,0.3-0.1-1.2-0.3,0.5c-0.4-23-1.9-45.3-0.5-67.8c0.4,18.8,0.8,37.5,1.2,56.3
		C211.8,386.5,211.6,390,211.5,393.4z"/>
	<path d="M223.3,76.6c0,5.8-0.1,11.8,1.4,16.9c1.1,3.9,0.8,8.7,1.1,13.1c0.1,1.8,0,3.8,0.6,5c0,6.1,0,12.4-0.4,19.8
		c-0.8-4.9-0.3-8.6-1-12c-0.1,8.7-0.1,17.5-0.4,26.2c-0.1,2.1-0.1,4.2-0.2,6.3c-0.1-2-0.5-3.7-1.6-4.4c-0.7-0.5-0.5-2.6-0.6-4.1
		c-0.2-3.2-0.4-6.5-0.6-9.7c-0.2,0.1-0.4,0.2-0.6,0.3c0.2,7.2,0.2,14.6,0.6,21.7c1,16.1,0.8,32.4,1.1,48.5c0.1,2.4-0.3,5.1,0.6,6.9
		c0,3.7,0,7.4,0.1,11.1c0,4.8-0.3,9.6,0.4,14.2c0,4.1,0,8.2-0.1,12.3l0,0l0,0c-0.1,2.9-0.1,5.7,0.2,8.4c0,0.5,0.1,1,0.2,1.6
		c0.1,9.3,0.3,18.5,0.7,27.8c-0.1,0-0.3,0-0.4,0c-0.1,2,0,4.1-0.5,6c-1.6,5.5-0.8,11.5-0.7,18c1.2-1.6,0.9-4.7,1.6-6.2l0,0l0,0
		c0.1,6,0.2,12,0.3,18.1c0.1,4.2,0.3,8.3-1.4,11.2c-0.6,1.1-0.6,3.8-0.6,5.9c-0.5,2.6-1.2,4.7-1.1,8c0.1,3.1,0.2,6.9-1.9,5
		c-0.5-0.4-0.7,1.6-0.8,2.9c-0.6,6-0.8,12.1-0.7,18.2c0.1,10.3,0.3,20.7,0.4,31c-0.1-2.5-0.2-5.1-0.3-7.6c-0.1-3-2.7,34.3-4.2,65.6
		V395c0-6-3.3,145.6-3.1,170.8c-0.1,5.8,1.2,244.3,1.7,356.2c0,1.8,0.5,2.9,1.1,3.3c0,10.3-0.5,20.6-0.5,30.9
		c0,23.8,0.4,47.5,0.4,71.3c0,10.7,0.5,21.3,0.6,31.9c0.1,8.9,0.5,18,1.1,26.9c1,15.3,1.2,30.7,1.6,46.2c0.2,7.5,0.3,14.9,1,22.2
		c0.3,2.5,0.3,5.3,0.3,7.9c0.1,13.6,0.3,27.2,0.4,40.8c0,0.4,0.2,0.8,0.5,2.2c0.6-7,0.7-13.5,0.8-19.9c0.1-7.2,0.1-14.4,0.8-21.5
		c0.6-2,1.5-2.3,2.4-2.9c0,6,0.9,7.9,1.4,2.9c0.8,0.9,0.5,3,0.9,4l0,0c0,2,0,4,0,6c0.1,0.4,0.2,0.8,0.2,1.3
		c-0.1-0.4-0.1-0.9-0.2-1.3c-0.1,2.9,0.5,10.3,0.5,11.2c-0.1,3.3,0.2,2.8,0.6,0.1c0.9-1.3,2.9-5.2,4.8-9.3c0.1,1.6,0.1,3.2,0.1,4.8
		c-0.1,3.5,1,3.7,2.3,2.1c1.5-3.7,1.9-8.4,1.9-13.7c0.1-7.1-0.1-14.3,0.4-23c0.8,4.9,0.3,8.6,1,12.1c0.1-8.7,0.1-17.5,0.4-26.2
		c0.1-2.1,0.1-4.2,0.2-6.3c0.1,2,0.5,3.7,1.6,4.4c0.7,0.5,0.5,2.6,0.6,4.1c0.2,3.2,0.4,6.5,0.6,9.7c0.2-0.1,0.4-0.2,0.6-0.3
		c-0.2-7.2-0.2-14.6-0.6-21.7c-1-16.1-0.8-32.4-1.1-48.5c-0.1-2.4,0.3-5.2-0.6-6.9c0-3.7,0-7.4-0.1-11.1c0-4.8,0.3-9.6-0.4-14.2
		c0-4.1,0-8.2,0.1-12.3l0,0l0,0c0.1-2.9,0.1-5.7-0.2-8.4c0-0.5-0.1-1-0.2-1.6c0-5.9-0.2-11.8-0.3-17.7c1.3,19.4,2.6,38.8,3.9,58.2
		c0,0.8,0,1.7,0,2.6c0,2.8,0.1,5.4,0.1,8.1c0.1,16.8,0.2,33.5,0.3,50.3c-0.1,0-0.1,0-0.2,0.1c-0.2,0.3-0.3,1.2-0.4,1.6
		c0.1,1.1,0.2,2,0.5,2c0.1,0,0.1,0,0.1-0.1c0,3,0,6.1,0.1,9.1c-0.1,0.3-0.2,0.6-0.3,0.9c0,0.1,0,0.5,0.1,0.6
		c0.1,0.1,0.1,0.2,0.2,0.2c0,3.8,0,7.6,0.1,11.3c-0.1,2.7-0.2,5.5,0,8.2c0,0.9,0,1.7,0,2.6c0,0.8,0.1,1.5,0.3,2.1
		c0,3.6,0,7.2-0.1,10.7l0,0l0,0c0,7-0.7,14.1,0.2,21c1.2,0.2,1.3-1.9,1.3-4.2c-0.1-6.1,0.1-12.4-0.3-18.3
		c-0.2-2.7,1.4-45.8,1.3-63.3c0.7,2.3,1.9-65.6,1.6-97.5L243.4,721c0.2,7.3,0.4,14.5,0.7,21.8c0.2-13.7,0.6-27.4,0.6-41.1
		c0.1-46.8,0.2-93.5,0.6-140.2c0.2-26.2-0.2-52.3-0.3-78.5c0-15.2,0-30.5,0.1-45.7c0.1-19-0.2-37.9-0.1-56.9c-0.1-0.6-0.2-1.3-0.2-2
		c0.1,0.7,0.1,1.3,0.2,2c0.5-5.2-0.1-10.8,0.8-15.8c0.2,15.9,0.4,31.9,0.6,47.8l0,0l0,0c-0.4,13.4,0.3,26.6,0.3,39.9
		c0,2.9,0.2,5.9,0.7,8.5l0,0c0,0.5,0,1,0,1.5l0,0c-1.2,6.9-0.8,14.1-0.7,21.2c0,1.1,0.6,2.1,0.8,3.1c-0.1,3.7-0.2,7.5-0.4,11.1
		c-0.4,5.3-0.4,10.5-0.1,15.9c0.7,9.8,0.4,19.6,0.3,29.5c0,2.8-0.2,5.7,0.3,8.4c1.2-31.8,0.5-63.7,0.9-95.5
		c-0.4-17.5,0.1-35,0.2-52.5c0-2.4,0-4.8-0.4-7c-0.1-14.7-0.2-29.4-0.2-44.1c0-10.4,0.5-20.8,0.5-31.2c0-23.8-0.4-47.5-0.4-71.3
		c0-10.7-0.5-21.3-0.6-31.9c-0.1-8.9-0.5-18-1.1-26.9c-1-15.3-1.2-30.7-1.6-46.2c-0.2-7.5-0.3-14.9-1-22.2c-0.3-2.5-0.3-5.3-0.3-7.9
		c-0.1-13.6-1.8-8.7-2.5-1.6c-0.6,2-1.5,2.3-2.4,2.9c0-6-0.9-7.9-1.4-2.9c-0.8-0.9-0.5-3-0.9-4l0,0c0-2,0-4,0-6
		c-0.1-0.4-0.2-0.8-0.2-1.3c0.1,0.4,0.1,0.9,0.2,1.3c0.1-2.9,0.3-5.9-0.4-8.5c0-0.9-0.1-1.8-0.1-2.7c0-0.4,0-0.7,0-1
		c0.3-2.7,0.3-5.7-0.6-7.4c-2.1-3.8-4-8.8-6.7-9.2c-1.1-0.2-2.1-1.8-3.1-2.5C224.1,71,223.3,72.3,223.3,76.6z M241.2,925
		c0.1,10.5,0.1,21.1,0.2,31.7c-0.2,2.3-0.3,4.7-0.3,7.1c0,5.6,0,11.2,0.2,16.8c0.1,4.1,0.2,8.2,0.3,12.3l0.1,14.9c0,2,0,4,0,6
		c-0.8-11.2-1.5-22.4-2.3-33.6c0.3-4-0.1-8.3-0.2-12.8c-0.3,0.4-0.4,0.8-0.6,1.3c-0.4-6.3-0.8-12.5-1.3-18.7c0.1-2.1,0.5-4,1.4-5.5
		c0.6-1.1,0.6-3.8,0.6-5.9c0.5-2.6,1.2-4.7,1.1-8C240.4,928.1,240.3,925.3,241.2,925z M215.1,561.5c0.9,15,1.7,30,2.6,45
		c-0.1,36.6-0.2,73.1-0.5,109.7c-0.2,26.2,0.2,52.3,0.3,78.5c0,15.2,0,30.5-0.1,45.7c-0.1,19,0.2,37.9,0.1,56.9
		c0.1,0.6,0.2,1.3,0.2,2c-0.1-0.7-0.1-1.3-0.2-2c-0.5,5.2,0.1,10.8-0.8,15.8c-0.2-15.9-0.4-31.9-0.6-47.8l0,0l0,0
		c0.4-13.3-0.3-26.6-0.3-39.9c0-1.8-0.1-3.6-0.3-5.4c0-2.5,0-5,0-7.6c0.7-6,0.3-12.2,0.2-18.3c0-0.6-0.2-1.1-0.3-1.6
		c0-4.3,0-8.7-0.1-13c0.3-5.2,0.4-10.3,0.1-15.4c-0.1-0.8-0.1-1.6-0.1-2.4c-0.2-37.4-0.4-74.8-0.5-112.2c0.1,0.3,0.2,0.5,0.4,0.8
		c0.3-26.7,0-53-0.4-79.9C214.7,567.3,214.9,564.5,215.1,561.5z M218.3,534.9c-0.1,8.2-0.3,16.4-0.4,24.7
		c-0.4-7.6-0.9-15.3-1.3-22.9c1-16.7,2-33.4,3-50.1c0.1,3.1,0.3,6.2,0.6,9.3c0.8,8.4,0,17.1,0.7,25.5c1.5,18.8,0.7,37.8,0.7,56.7
		l0,0l0,0c-0.2,8.3-0.4,16.5-0.6,24.8c-0.3-0.6-0.4-1.3-0.6-2c-0.3-4.6-0.5-9.2-0.8-13.8C219.4,569.6,219,552.3,218.3,534.9z
		 M217.5,443.2c0.1,3.1,0.2,6.3,0.3,9.4c0,1.2,0.3,1.9,0.6,2.3c-0.8,12.9-1.5,25.9-2.3,38.8C216.6,476.9,217.1,460.1,217.5,443.2z"
		/>
	<path d="M215.2,355.4c0.6,5.5,0.4,23.6-0.4,33.9C213.8,374.1,214,360.8,215.2,355.4z"/>
	<path d="M222.9,236.2c0.1-5.7,0.2-11.5,0.3-17.2C223.1,224.8,223.7,230.6,222.9,236.2z"/>
	<path d="M219.7,107.6L219.7,107.6L219.7,107.6c0,4.3,0,8.5-0.1,12.8c0.8,4.7,0.5,9.5,0.1,14.4c-0.6-3.1-0.9-6.3-0.7-9.8l0,0
		c-0.2-5.2,0-10.5-0.4-15.8c-0.5-5.9-0.3-12.2-0.3-18.3c0-2.3,0.1-4.4,1.3-4.2C220.4,93.6,219.8,100.6,219.7,107.6z"/>
	<path d="M224.4,286.2L224.4,286.2L224.4,286.2C224.4,286.2,224.4,286.2,224.4,286.2L224.4,286.2
		C224.4,286.2,224.4,286.2,224.4,286.2z"/>
	<path d="M223.3,279.5c0.9,2.1,0.9,4.5,1.1,6.7C222.6,286.1,222.7,283.5,223.3,279.5z"/>
	<path d="M220.3,153.3c0.3-0.1,0.4,0.8,0.5,2c-0.1,0.4-0.2,1.4-0.4,1.6c-0.3,0.4-0.5-0.4-0.6-1.2
		C219.8,154.6,219.8,153.4,220.3,153.3z"/>
	<path d="M220.2,142.7c0.1,0.1,0.1,0.5,0.1,0.6c-0.1,0.3-0.2,0.6-0.3,0.9c-0.1-0.4-0.2-0.8-0.2-1.1
		C219.9,142.5,220.1,142.3,220.2,142.7z"/>
</g>
<g>
	<path d="M1231.3,178.6c-3.8,0.3-32.8-4-38.8-3.6c-21.1,1.3-42.6,1.7-64.2,1.8c0.4-0.1,0.9-0.1,1.3-0.1c-0.4,0-0.9,0.1-1.3,0.1
		c-9.2,0.5-18.5,0.4-27.7,0.7c-15.4,0.5-30.8,1-46.3,1.5c-20,0.6-40.1,1.2-60.1,1.9c-33.8,1.2-67.7,2-101.6,2.9
		c-24.7,0.7-49.5,0.9-74.2,1.2c-10.6,0.2-21.3,0.1-31.9,0.1c-0.5,0.1-1.1,0.1-1.7,0.2c-2.1,0.2-4.4,0.1-6.5,0.1
		c-48.6,0.2-97.1,0.4-145.7,0.6c-7.2,0-14.3,0.4-21.5,0l0,0l0,0c-2.7,0.4-5.5,0.3-8.2,0.3c-16,0.1-32,0.1-47.9,0.2
		c-16.4,0.1-32.9,0.4-49.3,0.2c-28.7-0.3-57.4,0-86.1-0.6c-8.8-0.2-17.6-0.2-26.4-0.4c-22.6-0.5-45.3-1-67.9-1.6
		c-7.2-0.2-14.6-0.1-21.8-0.6c-0.1,0-0.2,0-0.3,0c-0.4,0.1-0.9-0.1-1.3-0.2c-25.5-0.2-50.9-1.2-76.4-1.7
		c-10.6,0.1-21.4,0.2-31.9,0.1c-15.7-0.2-31.3,1-47,0c-5.3-0.4-11.1,0-16.6-0.2c-7.9-0.3-16,0-23.5-1.4c-1-0.2,45.7-6.3,39.4-6.3
		c-44,0-51.8-10.4-44.3-12.6c26.4-8-8.8-11.5,1.1-12c23-1.1,58.9-1,82-0.4c24.7,0.6,114.2-2.9,134.3-2.5c25.4,0.5,50.9,0.8,76.3,1.1
		c27.8,0.3,55.6,0.3,83.4,0.5c5.5,0,11.1-0.1,16.6-0.1c30.5,0.2,60.9-0.2,91.4-0.2c22.4,0,44.8-0.1,67.2-0.1l0,0l0,0
		c2.3,0,4.6-0.1,6.9-0.1c47.8,0.2,95.7-0.2,143.5-0.7c8.1-0.1,16.2-0.1,24.2-0.1c7.1-0.5,14.3-0.4,21.4-0.4c2.1-0.2,4.3-0.2,6.4-0.1
		c4.2-0.5,8.6-0.4,13-0.3l0,0l0,0c2.1-0.2,4.3-0.3,6.5-0.1c0.6-0.1,1.3-0.1,1.9-0.1c7.3-0.4,14.7-0.3,22.1-0.4
		c15.4-0.2,30.7-0.9,46.1-0.7l0.5-0.1l0.5,0c1-0.1,2.1-0.1,3.1-0.1c6.9-0.3,123.4,4.1,141,3.9c4.8-0.1,9.8-0.4,14.5-0.2
		c6.3,0.3,12.4,0.2,18.6,0.3c16.6,0.1,33.3-0.4,49.9,0c4.2-0.1,53.6-0.3,53.9-0.3c3.5,0,4.7,4.9,5,10.7c0.1,1.9-81.1,4.2-81.1,4.2
		s80.9,3.6,80.8,4.5C1232.3,173.3,1231.3,178.6,1231.3,178.6z"/>
</g>
<g>
	<path d="M1177,1140c-25,1-47.7-1.9-70.6-1.5C1129.2,1136.5,1167.8,1137.3,1177,1140z"/>
	<path d="M1230.2,1101.5c-38.1-1.8-76.4-0.3-118.1-2.8C1127.9,1096.5,1192.4,1098.1,1230.2,1101.5z"/>
	<path d="M1228.7,1112.4c1.9-1.1,4.5-2.3,3.5-4.7c-1.1-2.8-4.1-3.6-7.1-3.6c0,0,0,0,0,0c-10.1-1.8-20.2-1.6-30.2,0
		c-8.2-1.6-16.4-0.4-24.7-0.6c-19.8-0.6-39.6-0.9-59.4-2.9c-6.6-0.7-891.7-0.3-898.3-0.4l0,0c-15.9-1.1-31.7-2.7-47.7-2.1
		c16.1,0.2,31.3,5.8,47.3,6.8c-5.6,1.2-11.3,0.6-17,0.8c-11.9-0.7-23.8-1.6-35.7-2.1c-5.5-0.2-10.9,1.7-16.5,0.8l0,0
		c-3.9-1.2-7.9-1.6-11.9-1.4c-3.4,0.2-2.8,2-1.5,4l0,0c0,0,0,0,0,0c0,0,0,0,0,0c-10.2-1.5-20.3-2.7-30.4,1c0.5,2.4,2.4,2.2,3.6,3
		l0,0c3.5,1.6,7.2,1.5,10.8,1.2l0,0c10.1,1,20.1,2,30.2,3c0,0,0,0,0,0c1.4,0.4,2.9,0.9,4.3,1.3c-0.5,0.5-1,1-1.5,1.5l0,0l0,0
		c-6.8,0-13.6,0-20.5,0c13.3,3.8,27,3.5,40.4,5.4c-1.6,0.5-3.3,1.1-6.3,2.1c6.7,0.4,11.9,2.1,17.3,1.7l0,0c0.4,0.1,0.7,0.2,1.1,0.2
		l0,0l0,0c-2.5,3.2-6.2,2-9.3,2.7c-2.1,0.3-4.4-0.7-6.5,0.7c-0.4,2.1,1.2,2.2,2.4,2.4c3.5,0.4,7.1,0.8,10.6,1
		c28.9,2,936.1-1.9,965-0.1c12.7,0.8,25.4,0.9,38.1,0.7c6.1-0.1,11.8,2.3,17.8,1.9c6.5-0.4,12.9-1.6,19.3-2.6c2-0.3,4.1-1.3,3.8-3.9
		c-0.2-2.2-2.2-2.7-3.9-3c-2.9-0.4-5.8-0.3-8.6-0.8c-2.5-0.4-5.6-0.5-6-4.7c3-1.2,27.6-0.4,30.8-0.5
		C1235.5,1120.9,1226.8,1115.4,1228.7,1112.4z M178.7,1126.6c-0.3,0.2-0.6,0.4-0.9,0.6C177.9,1126.7,178.3,1126.6,178.7,1126.6z"/>
</g>
<g>
	<path class="st0" d="M417.3,305.5c4.7,6.2,8.8,12.7,12.2,19.5c3.4,6.8,6.2,14,8.6,21.6c1.2,3,2.1,6,2.6,9c0.5,3,1,6,1.5,9.1
		c0.4,9.1,0.9,18.3,1.4,27.5c0.5,9.2,0.3,18.3-0.7,27.3c0,0.2,0,0.3-0.1,0.3c-0.1,0-0.1,0.1-0.1,0.3c-2.8,11.7-7.1,23-12.7,33.8
		c-5.7,10.8-11.7,21.1-18.2,30.8c-12.5,1.5-25.1,2.9-37.8,4.1c-12.7,1.2-25.1,2.4-37,3.4l-0.3,0.3c-3.4-15.1-6.1-30.7-8.1-47
		c-2-16.3-3.7-32.8-5.1-49.6c-1.4-16.8-2.8-33.8-4-50.9c-1.2-17.1-2.7-34.1-4.5-50.8c0.2-0.2,0.3-0.4,0.4-0.6
		c0.1-0.2,0.2-0.4,0.4-0.6c5.2-1.8,10.7-3.2,16.4-4.2c5.8-1,11.6-1.7,17.5-2.1c5.9-0.4,11.8-0.8,17.6-1.1c5.8-0.3,11.5-0.8,17-1.5
		c6.2,1,12.3,3.5,18.3,7.6C408.4,295.5,413.4,300.2,417.3,305.5z M400.1,412.9c2.8-5.3,4.7-11,5.6-17.1c0.9-6.1,0.3-12.7-1.8-19.7
		c-0.8-2.8-1.7-5.8-2.8-9c-1-3.1-2.4-6.1-4.1-8.8c-1.7-2.8-3.7-5.2-5.9-7.2s-5.1-3.5-8.4-4.4c-3.3-0.1-6.8,0-10.6,0.2
		c-3.8,0.2-7.4,0.9-10.7,2l-0.6,0l-0.3,0l0.1,1.2c0.8,5.2,1.5,10.8,2,16.7c0.5,6,0.9,12.2,1.3,18.7s0.8,13.1,1.4,19.7
		c0.6,6.7,1.3,13.3,2.3,19.8c2.3,1.7,5.2,2.4,8.9,1.8c3.7-0.5,7.2-1.1,10.6-1.8c1,0.1,1.8-0.1,2.5-0.7c0.7-0.5,1.5-1.1,2.5-1.5
		c1.8-1.3,3.3-2.9,4.6-4.6C398,416.6,399.1,414.8,400.1,412.9z"/>
	<path class="st0" d="M476.1,270.4l6.9-0.4l0.1,1.2c0.9,16.6,1.5,33.4,1.9,50.3c0.4,16.9,0.9,33.8,1.5,50.7
		c0.6,16.9,1.4,33.8,2.5,50.7c1.1,16.8,2.5,33.4,4.3,49.8c-1.4,1.6-4.6,2.7-9.4,3.3s-10.1,0.9-15.7,1c-5.6,0.1-11,0.1-16.2,0.1
		c-5.2,0-8.7,0.3-10.6,1c0.4-17.5,0.1-35-1-52.6c-1.1-17.6-2.3-35.1-3.7-52.4c-1.4-17.3-2.5-34.4-3.5-51.3c-1-16.9-1-33.6-0.1-49.9
		l0-0.6c0.9-0.2,2.8-0.3,5.6-0.2c2.8,0.1,4.8,0.2,6.2,0.1c3.4,0,7.4,0,11.9,0.1C461,271.3,467.5,271,476.1,270.4z"/>
	<path class="st0" d="M608.6,312.8c3.4,7.1,6,14.3,7.9,21.6c1.9,7.4,3.2,15,4,22.9c0.6,3.2,0.8,6.3,0.7,9.3c-0.1,3-0.2,6.1-0.4,9.2
		c-1.5,9-2.9,18-4.3,27.1c-1.4,9.1-3.5,18-6.2,26.6c0,0.2-0.1,0.3-0.2,0.3c-0.1,0-0.2,0.1-0.2,0.3c-5.2,10.9-11.6,21-19.4,30.4
		c-7.8,9.4-15.8,18.1-24.1,26.3c-12.5-1.2-25.2-2.5-37.9-4c-12.7-1.5-25-3-36.9-4.5l-0.3,0.3c-0.2-15.5,0.3-31.3,1.7-47.7
		c1.4-16.3,3.1-32.9,5.1-49.6c2-16.7,4.2-33.6,6.5-50.6c2.3-17,4.3-33.9,6-50.7c0.2-0.2,0.4-0.3,0.5-0.5c0.1-0.2,0.3-0.3,0.5-0.5
		c5.5-0.7,11.1-0.9,16.9-0.7c5.8,0.2,11.7,0.8,17.5,1.6c5.9,0.8,11.7,1.7,17.4,2.6c5.7,0.9,11.4,1.6,16.9,2.1
		c5.9,2.3,11.3,6.1,16.4,11.3C602,301.2,605.9,306.8,608.6,312.8z M569.8,414.3c3.8-4.6,6.8-9.8,8.9-15.6c2.1-5.8,2.9-12.3,2.2-19.6
		c-0.2-3-0.5-6.1-0.9-9.3c-0.4-3.3-1.1-6.4-2.2-9.5c-1.1-3.1-2.5-5.8-4.3-8.3c-1.8-2.5-4.3-4.5-7.3-6c-3.2-0.8-6.6-1.5-10.4-2
		c-3.8-0.6-7.4-0.7-10.9-0.3l-0.6-0.1l-0.3,0l-0.1,1.2c-0.2,5.2-0.7,10.8-1.4,16.8c-0.7,6-1.6,12.2-2.5,18.6
		c-1,6.4-1.9,12.9-2.7,19.6c-0.8,6.6-1.4,13.3-1.8,19.8c1.9,2.2,4.6,3.4,8.3,3.7c3.7,0.3,7.3,0.4,10.8,0.5c0.9,0.3,1.8,0.3,2.6-0.1
		c0.8-0.4,1.7-0.7,2.7-1c2-0.9,3.9-2.1,5.5-3.6C567,417.4,568.5,415.9,569.8,414.3z"/>
	<path class="st0" d="M701.9,289.2c4.7,6.2,8.8,12.7,12.2,19.5s6.2,14,8.6,21.6c1.2,3,2.1,6,2.6,9c0.5,3,1,6,1.5,9.1
		c0.4,9.1,0.9,18.3,1.4,27.5c0.5,9.2,0.3,18.3-0.7,27.3c0,0.2,0,0.3-0.1,0.3c-0.1,0-0.1,0.1-0.1,0.3c-2.8,11.7-7.1,23-12.7,33.8
		c-5.7,10.8-11.7,21.1-18.2,30.8c-12.5,1.5-25.1,2.9-37.8,4.1c-12.7,1.2-25.1,2.4-37,3.4l-0.3,0.3c-3.4-15.1-6.1-30.7-8.1-47
		c-2-16.3-3.7-32.8-5.1-49.6c-1.4-16.8-2.8-33.8-4-50.9c-1.2-17.1-2.7-34.1-4.5-50.8c0.2-0.2,0.3-0.4,0.4-0.6
		c0.1-0.2,0.2-0.4,0.4-0.6c5.2-1.8,10.7-3.2,16.4-4.2c5.8-1,11.6-1.7,17.5-2.1c5.9-0.4,11.8-0.8,17.6-1.1c5.8-0.3,11.5-0.8,17-1.5
		c6.2,1,12.3,3.5,18.3,7.6C693,279.2,697.9,283.9,701.9,289.2z M684.7,396.6c2.8-5.3,4.7-11,5.6-17.1c0.9-6.1,0.3-12.7-1.8-19.7
		c-0.8-2.8-1.7-5.8-2.8-9c-1-3.1-2.4-6.1-4.1-8.8c-1.7-2.8-3.7-5.2-5.9-7.2c-2.3-2-5.1-3.5-8.4-4.4c-3.3-0.1-6.8,0-10.6,0.2
		c-3.8,0.2-7.4,0.9-10.7,2l-0.6,0l-0.3,0l0.1,1.2c0.8,5.2,1.5,10.8,2,16.7c0.5,6,0.9,12.2,1.3,18.7s0.8,13.1,1.4,19.7
		c0.6,6.7,1.3,13.3,2.3,19.8c2.3,1.7,5.2,2.4,8.9,1.8c3.7-0.5,7.2-1.1,10.6-1.8c1,0.1,1.8-0.1,2.5-0.7c0.7-0.5,1.5-1.1,2.5-1.5
		c1.8-1.3,3.3-2.9,4.6-4.6C682.5,400.3,683.7,398.5,684.7,396.6z"/>
	<path class="st0" d="M839,283.5l0,0.3c-6.8,16.9-14.6,33.3-23.2,49.3c-8.7,16-17.6,31.8-26.8,47.7c-9.2,15.8-18.2,31.7-27.1,47.5
		c-8.8,15.9-16.8,32-24,48.5c-1.1-0.3-2.3-0.5-3.4-0.6c-1.1-0.1-2.4-0.2-3.7-0.3c-4-0.3-8.4-0.6-13.2-0.7c-4.8-0.1-9.4-0.4-13.7-0.8
		c-1.1-0.1-2.3-0.2-3.4-0.3c-1.1-0.1-2.3-0.3-3.4-0.6l-0.6,0c6.3-15.2,13.5-31,21.6-47.5c8.1-16.5,16.2-32.9,24.3-49.3l0-0.6
		c-1.4-8.7-3.3-17.4-5.8-26.1c-2.5-8.7-5.2-17.3-8-25.9s-5.5-17.2-8-25.8s-4.4-17-5.6-25.3c3.8,0.3,7.8,0.4,12.1,0.2
		c4.2-0.2,8.4-0.1,12.6,0.2c2.3,0.2,4.5,0.6,6.8,1c2.3,0.5,4.4,1.3,6.4,2.5c0.6,4.3,1.5,9.5,2.8,15.4c1.3,5.9,2.7,12,4.2,18.2
		c1.5,6.2,3.1,12.1,4.8,17.6c1.7,5.6,3.3,10.3,4.7,14.1c2.2-3.3,4.5-7.6,7-12.9c2.5-5.3,5-10.9,7.5-16.7s5-11.5,7.4-17.1
		c2.4-5.6,4.6-10.3,6.7-14c3.5-0.5,8.1-0.6,14-0.4c5.8,0.2,11.2,0.6,16.1,1c2.3,0.2,4.4,0.4,6.3,0.7
		C836.4,282.9,837.9,283.2,839,283.5z"/>
</g>
<g>
	<path class="st1" d="M773.6,796.6l-0.7,30.6l-21.7,0.9l-5.5,68.5l-30.7,1.6l0.1-68.5l-21.7,1.2l0.9-34.1L773.6,796.6z"/>
	<path class="st1" d="M857.9,899.9l-36.4,1.7l-0.3-33.4h-16.7l-1,31.6h-32.6l2.8-101.5l34.6,1.6l-2.2,51.9h16.1l0.1-55.8l33.2,0.9
		L857.9,899.9z"/>
	<path class="st1" d="M927.5,795.7c-0.3,4.5-0.6,9-0.8,13.4c-0.2,4.4-0.6,8.9-0.9,13.4l-30.8,1.6l-0.7,9.1h21.7l-1.6,22.4l-21.8,0.7
		l-0.7,10.5h18h12.8c-0.3,5.3-0.6,10.6-0.9,15.8c-0.3,5.2-0.6,10.5-0.8,15.7l-62.7,1.4l2.3-104.1H927.5z"/>
	<path class="st1" d="M607.3,922.6l-35.1,48.1l29.5,51.1l-33.7,5.9l-22.1-31.2l-1.2,32.6l-30.3,1.2l2.3-110.6l33.9,1.9l-2.6,32.6
		l22.5-34.5L607.3,922.6z"/>
	<path class="st1" d="M639.7,924.3l-8,98.4l-30.7,1.6v-97.9L639.7,924.3z"/>
	<path class="st1" d="M737.5,922.5l-5.2,97.9l-38.1,3.5l-20.4-52.4l-3.2,53.4h-32.7l2.6-102.4l36.4-1.7l25.2,52l1.2-49.1
		L737.5,922.5z"/>
	<path class="st1" d="M825.1,1011.3c-2.3,2.8-5.1,5.3-8.4,7.4c-3.3,2.1-6.9,3.9-10.8,5.3c-3.8,1.4-7.8,2.4-11.8,3.1
		c-4,0.7-7.9,1-11.5,1c-7,0-13.5-1.3-19.4-3.8c-5.9-2.5-11-6-15.3-10.4c-4.3-4.4-7.6-9.6-10.1-15.6c-2.4-6-3.6-12.4-3.6-19.3
		c0-5.3,0.6-10.4,1.8-15.4c1.2-5,2.9-9.8,5.2-14.2s5-8.5,8.3-12.3c3.3-3.7,6.9-6.9,11-9.6s8.6-4.8,13.5-6.3
		c4.9-1.5,10.1-2.2,15.7-2.2c2.1,0,4.3,0.1,6.7,0.3c2.4,0.2,4.7,0.5,7.1,0.9c2.4,0.4,4.6,1,6.9,1.7c2.2,0.7,4.3,1.6,6.1,2.7l-2,27.6
		c-2.7-1-5.5-1.7-8.4-2.1c-2.9-0.4-5.7-0.5-8.5-0.5c-3.9,0-7.5,0.6-10.9,1.8c-3.4,1.2-6.3,2.9-8.8,5.1c-2.5,2.2-4.5,4.9-5.9,8.1
		c-1.5,3.2-2.2,6.8-2.2,10.8c0,2.5,0.3,4.9,1,7.3c0.7,2.3,1.7,4.4,3.1,6.2s3.1,3.3,5.2,4.4s4.4,1.7,7.2,1.7c1.8,0,3.7-0.2,5.7-0.7
		c2-0.5,3.6-1.3,5.1-2.5l0.3-5.6l-17.5-0.3l0.9-21.7c7.2-0.2,14.4-0.4,21.7-0.6c7.2-0.2,14.5-0.4,21.8-0.7L825.1,1011.3z"/>
	<path class="st1" d="M906.9,968.7c0,6.7-0.9,12.8-2.6,18.2c-1.7,5.4-4.2,10.2-7.3,14.4c-3.1,4.2-6.8,7.8-11.2,10.9
		c-4.3,3-9,5.5-14.2,7.5s-10.6,3.4-16.4,4.3c-5.8,0.9-11.7,1.4-17.9,1.4c-2.3,0-4.5-0.1-6.7-0.2c-2.2-0.1-4.4-0.3-6.7-0.5l2-96.9
		c5.3-1.7,10.8-2.9,16.5-3.6c5.7-0.7,11.3-1,16.8-1c6.9,0,13.3,1,19.1,3.1c5.8,2.1,10.8,5.1,15.1,9c4.2,3.9,7.5,8.7,9.9,14.3
		C905.7,955.2,906.9,961.6,906.9,968.7z M877.1,973.3c0-2.6-0.2-5.1-0.8-7.5c-0.6-2.4-1.6-4.5-3-6.4c-1.4-1.8-3.1-3.3-5.3-4.5
		c-2.1-1.1-4.7-1.7-7.6-1.8l-2.9,44.8c2.9-0.4,5.6-1.4,7.9-2.8c2.4-1.5,4.4-3.3,6.1-5.4c1.7-2.1,3.1-4.5,4-7.1
		c0.9-2.6,1.5-5.3,1.6-8.1L877.1,973.3L877.1,973.3z"/>
	<path class="st1" d="M995,975c0,4.4-0.5,8.6-1.5,12.7c-1,4.1-2.5,7.9-4.4,11.5c-1.9,3.6-4.2,6.8-7,9.8c-2.7,3-5.8,5.5-9.2,7.6
		c-3.4,2.1-7.1,3.8-11.2,4.9c-4,1.2-8.3,1.8-12.8,1.8c-4.4,0-8.5-0.6-12.5-1.7s-7.6-2.7-11.1-4.7c-3.4-2-6.6-4.4-9.3-7.2
		c-2.8-2.8-5.2-5.9-7.1-9.4c-2-3.4-3.5-7.1-4.6-11.1c-1.1-3.9-1.6-8.1-1.6-12.4c0-4.2,0.5-8.3,1.5-12.3c1-4,2.5-7.8,4.4-11.4
		s4.2-6.8,6.9-9.8c2.7-3,5.8-5.6,9.1-7.7c3.4-2.2,7-3.8,10.9-5.1c3.9-1.2,8.1-1.8,12.4-1.8c7,0,13.4,1.1,19.2,3.3
		c5.8,2.2,10.7,5.3,14.8,9.3c4.1,4,7.3,8.9,9.5,14.6C993.9,961.6,995,968,995,975z M962.7,976.9c0-2.1-0.3-4.1-0.9-6
		c-0.6-1.9-1.5-3.7-2.7-5.2c-1.2-1.5-2.6-2.7-4.3-3.7c-1.7-0.9-3.7-1.4-5.9-1.4c-2.3,0-4.3,0.4-6.1,1.2c-1.8,0.8-3.3,1.9-4.6,3.4
		c-1.3,1.4-2.3,3.1-2.9,5s-1,3.9-1,6c0,2,0.3,4,0.9,6.1s1.5,3.8,2.6,5.5c1.2,1.6,2.6,3,4.3,4c1.7,1,3.7,1.5,6,1.5
		c2.3,0,4.3-0.4,6.1-1.3c1.8-0.9,3.4-2.1,4.6-3.6c1.3-1.5,2.2-3.3,2.9-5.2C962.4,981.1,962.7,979,962.7,976.9z"/>
	<path class="st1" d="M1106.4,920.7l-6.7,106l-33.2,1.4l0.3-55.9l-15,45.1h-12.8l-11.5-40.3l-0.1,46.8l-33.6,1l1.5-99.8l37.4-1.4
		l14.8,47.8l19.8-50.7H1106.4z"/>
</g>
<g>
	<path d="M1167.4,96.9c-0.8-1.2-2.3,0.3-2,2.4c0.1,0.2,0.1,0.4,0.1,0.6c0,0,0,0,0,0c0,0.1,0,0.1,0,0.2c0.2,1.4,0,2.6-0.7,3.8
		c-0.1-0.7-1.7-16.1-2.1-20.1c-0.2-2.2-3.7,9.2-4.3,13.9c-0.2,1.3-0.3,4.6-0.7,6.4c-0.6,0-1.1,0-1.7,0c-0.1-0.7-0.1-1.5,0-2.4
		c0.1-1.3-0.6-2.3-1.2-2.4c-0.1-1.1-0.1-2.2-0.2-3.2c-0.1-2.3-3.6,7.8-3.6,7.8c0,0,0,0,0,0c-0.3-2.7-0.5-5.4-0.8-8.1
		c-0.3-2.7-2.3-2.1-2.5,0.4c-0.2,4.6-0.5,9.3-0.7,13.9c-0.1,0.4-0.1,0.8-0.1,1.2c-0.4-9.1-0.8-18.3-1.2-27.4
		c-0.1-2.9-2.1,9.6-1.9,14.5c-0.8,3.5-0.6,7.4-0.9,10.8c-1.1,10-1.9,20.2-2.3,30.5c-1.1,8.9-0.8,18.2-1.2,27.3
		c-0.2,4.5-0.2,9.1-0.2,13.7c0,4.1-0.1,8.2-0.4,12.4c-0.5,6.5,0,13.1,0.2,19.6c0.3,11.9,0.9,23.9,0.8,35.9
		c-1.3,28.1-1.8,56.3-0.9,84.4c0.9,28.3,1,56.8,2.2,85c1,23.2,1.4,46.6,1.2,70.1c-0.1,9.2,0.2,18.4,0,27.6c0,1.3-0.1,2.9,0.2,3.8
		c1.3,5.2,1.3,11.3,1.5,17c0.7,17,1.4,33.9,1.7,51c0.1,3.1-0.2,6.1-0.3,9.1c-0.4,9.4-0.2,18.8,0,28.2c0.3,11.3,0.2,22.7,0.3,34.1
		c0.1,0.8,0.1,1.5,0.2,2.2c-0.1-0.7-0.1-1.5-0.2-2.2c0,7.1-0.9,13.6-1.9,20c-0.4,0.3-0.8,0.8-0.8,2.1c-0.1,0.9-0.1,1.7-0.1,2.6
		c0,23.2-1.4,46-2.2,69c-0.2,5.4-0.2,10.8,0,16.3c0.6-11.2,1.2-22.4,1.8-33.6c0.8-3.3,0.3-7.5,1.2-12.1c0.6,4.6,0.1,8,0.3,11.3l0,0
		c-0.3,17.4-0.6,34.7-0.9,52.1c-0.4,5.5-0.4,11.1-0.4,16.7c0,0,0,0,0,0c-0.6,3-0.3,5.1,0.9,6.3c-0.5,3.5,0.4,6.9,0,10.7
		c-0.3,2.9-0.7,5.6-1.3,8.1l0,0c-1.2-3.1-0.5-7.8-1.1-12.4c-0.7,3.6,0.1,6.6-0.6,9c-0.6,0-0.4-2.3-1.1-2.4
		c-0.4,5.1,0.1,9.9,0.2,14.8l0,0l0,0c-0.4,6.2-0.1,12,1.1,17.5l0,0c0.1,4.5,0.3,8.9-0.2,13.5c-0.3,2.9-0.1,6,0.3,8.9
		c0.1,9.3-0.1,18.7,0.4,27.9c0,0.5,0,0.9,0.1,1.4c-1.1,10,0.8,59.4,0.6,74.3c-0.1,7.5,0.4,14.8,1.1,22c0.5,5.4,0.8,11,0.7,16.8
		c-0.7-0.6-0.7-2.2-1.1-3.1c-0.3,2.2-0.3,4.2-0.1,6c0.3,3.3,0.6,5.8-0.5,9.3c-0.8,2.6-0.5,7.5-0.5,11.4c0.3,16.6,1.3,33,1.7,49.5
		c0.4,13.5,0.2,27.1,0.5,40.6c0.2,8.9,0.3,17.9,0.6,26.8c-0.2,4.5-0.3,9,0.2,13.4c0,0.3,0,0.7,0,1l0,0c0,4.3-0.1,8.7-0.1,13
		c0,0,0,0.1,0,0.1c0,0,0-0.1,0-0.1c-0.1,3.2-0.3,6.4,0.3,9.4c0,0.4,0,0.8,0,1.2c0.1,0.3,0.1,0.6,0.1,0.9c0-0.3-0.1-0.6-0.1-0.9
		c-0.1,2-0.1,4,0.2,5.8c0,0.3,0.1,0.6,0.2,0.9c0,1.3,0,2.5,0,3.8c0,1.3-0.1,2.6,0,3.9c0.1,1,0.2,2.5,0.4,2.9
		c0.4,0.6,0.9-2.8,1.5,0.1c0.1,0.6,0.3-0.5,0.4-1.1c0-0.7,0.1-1.4,0-1.9c-0.8-7.3-0.1-14.7-0.3-22.1c-0.1-2.9,0.2-5.6,0.3-8.4
		c0.3-14,0.2-27.9-1.2-41.5l0,0c-0.1-1-0.3-2-0.4-2.9l0,0c0-5.1,0.1-10.3,0.1-15.4l0,0l0,0c1.1-3.9,1.3-5.6,2.1-2.5
		c0.5,21.5,1,42.9,1.5,64.4l0,0c-0.6,8.1,0.2,15.9,0.8,23.8c0.1-0.5,0.2-0.8,0.3-1.2c0.1-8.4-0.4-16.9,0.4-25.3
		c0.2-1.7,0-3.5-0.3-5.1c0-14,1.5-40.7,3.2-46.8c0.1-0.3,3.3,58.4,3.3,55.4c-0.2-19.7-0.4-39.4-0.6-59.1c4.4,5.8,5.3,72.3,6.3,71.6
		c0.5-0.4-0.9-74.3-0.4-74.8c2.4-2,4.3-11.2,4.9-13.5c1.2,29.9,1.1,60.1,2.2,91c0.7-2.3,0.4-4,0.3-5.5c-0.6-7-0.4-13.9,0.1-20.8
		c0.3-4.3,0.4-8.7,0.3-13.1c-0.2-9.2-0.5-18.3-0.8-27.4c-0.1-2.2-0.2-4.4-0.1-6.5c0.6-11.2,0-22.3-0.1-33.4c0-5.7-0.1-11.3,0.1-17
		c0.3-7.9,0-15.7-0.3-23.5c-0.1-1-0.2-2.1-0.2-3.1c0.1,1,0.1,2.1,0.2,3.1c0.3-2.3-0.2-5.6,1.3-6.1c0.1,0,0.3-1.1,0.2-1.6
		c-0.4-5.5,0.1-11.3-1-16.6c-1.2-6.3-1.3-13.3-1.4-20.2c0-0.8,0-1.8,0.1-2.5c1.2-5.8,0.6-11.5,0.2-17.2c0-0.6-0.1-1.2-0.1-1.8
		c-0.7-6.8-0.8-13.7-0.5-20.8c0.3-9.3,0.7-18.7,0.5-28.1c-0.1-3.9-0.1-7.8,0.9-11.7c0.7-2.7,0.5-7.2,0.7-10.8c0-0.6-0.1-1.5-0.2-1.8
		c-1.6-2.7-1.7-5,0.2-7.2c0.3-0.4,0.3-1.5,0.3-2.3c0-5.2,0.2-10.6-0.6-15.5c-0.4-2.6-0.4-5.1-0.3-7.6c1.3-20.9,1.7-42.1,2.7-63.1
		c0.6-12.2,0.9-24.2,0.4-36.4c-0.1-3.2,0-6.5,0.1-9.8c0.2,0,0.3,0.1,0.5,0.1c0.1,2.5-0.1,5.2,0.6,8.8c0.5-6.1,0.4-11.2,0.4-16.3
		c-0.3-3.5-0.3-6.8,0.4-10.1c0.8-4.1,0.7-8.8,0-12.7c-0.6-3-0.6-6.2-1.1-9.1c-0.6-2-0.6-4.3-0.6-6.7c0-5.8,0.1-11.6,0.1-17.4
		c0-2.6,0.1-5.2-0.4-7.5l0,0c-0.5-12.3-0.2-24.5,0.1-36.8l0,0c0-0.9,0.1-1.8,0.1-2.6c1.1-3,1.2-6.8,1.1-10.7c-0.1-3-0.2-5.9-0.3-8.8
		l0,0l0,0c0.3-3.9-0.1-7.8-0.3-11.6c-0.1-2-0.5,0.2-0.8,0.5c-0.1-2.2,0-4.5-0.2-6.5c-1.6-14.8-1.1-29.9-1.1-44.9c0-2-0.2-4,1-5.2
		c0.7-0.7,0.5-3.9,0.5-6.1c0-6.3,0.1-12.7,0.5-18.9c0.8-12.9,1-26,1.4-39.1c0.3-13.2,0-26.2-0.2-39.3c-0.4-24.9-1.4-49.6-2.3-74.4
		c-0.4-11.5,0.2-23.1,0.3-34.7c0.3-13.7,0.8-27.4,0.4-41.1l0,0c0.4-19.9,0.2-39.8,0.3-59.7c0-5.7,0.3-11.3,0.8-16.9
		c0.1-1.5,0.3-3.3,0.6-4.2c1.5-3.9,1.4-8.8,1.2-13.5c-0.2-4.2,0.4-7.3,1.4-9.8c0.9-2.1,1.3-4.6,1.3-7.4c0.1-8.5,0.5-16.8,1.2-25.2
		c0.6-7.4-0.3-15.2-1.2-22.4c-0.4-2.8-0.5-5.1,0-8.1c1-5.6,0.9-11.5-0.2-17.1c0-1.3,0.1-2.7,0.1-4c1-7.9,0.5-15.5-0.7-22.9
		c-0.5-3.1-0.9-6-2.7-6.3c-1.1-0.2-2.1-3.3-3-5.4c-0.8-1.8,0.6-12.1,0.1-15.2C1171.1,77.7,1167.5,93.6,1167.4,96.9z M1145.7,137.6
		c-0.2,0.2-0.3,0.4-0.5,0.5c-0.3-0.9-0.5-2.1-0.6-3.5c-0.8,0.8-0.7,2.5-0.9,3.9c-0.1,0.6-0.1,1.3-0.1,1.9c-0.3,9.5-0.3,19-1.1,28.5
		c-0.8,10-0.5,20.4-0.6,30.6c-0.1,12.2-0.3,24.4-0.5,36.5l0,0c-0.9-9.6-0.8-19.4-0.8-29.2c-0.1-8.9,0.2-17.8,0.4-26.8
		c0-2.8,0.2-5.6-0.4-8.3c-0.3-1.6-0.2-3.3-0.2-5.1c0.3-7.4,0.5-14.8,0.7-22.1c0,0,0,0,0,0c0.9-5.5,0.5-11.5,1-17.1
		c0.5-5.2,0.9-10.5,1.4-15.7l0,0c0.3-1.8,0.5-3.6,0.8-5.3C1144.8,116.8,1145.3,127.2,1145.7,137.6z M1162.3,103.9
		c-0.7,0-1.4,0-2.1,0.1c0.1-0.6,0.1-1.3,0.2-1.8c0.3-2.3,0.6-4.7,0.9-7c0.2,1.9,0.4,3.8,0.6,5.7
		C1162,101.7,1162.1,102.8,1162.3,103.9z"/>
	<path d="M1141.4,577.2c-0.6,16.1-1.2,32.2,0.4,48.1C1141,609.2,1142.7,593.1,1141.4,577.2z"/>
	<path d="M1138.2,244c-0.4-21-0.3-42-0.6-62.9C1137.2,202.1,1136.6,223.2,1138.2,244z"/>
	<path d="M1144.2,599.8c-1,8.6-0.9,26.2,0.5,39.2C1144.9,626,1144.6,613.1,1144.2,599.8z"/>
	<path d="M1138.2,834.5c-0.7,3.7-0.3,7.6-0.2,11.5c0.1,4.4,0.3,8.7,0.3,13.1c0.1,4.1,0,8.2,0,12.3
		C1139.2,859,1139.3,846.7,1138.2,834.5z"/>
	<path d="M1171.1,1033.9c0.2-3.9,0-7.6-0.8-12.5C1169.9,1027,1170.5,1030.5,1171.1,1033.9z"/>
	<path d="M1148.2,88.8c-1.2,3.2-1,6.8-0.9,10.2C1147.9,95.9,1148.7,93,1148.2,88.8z"/>
</g>
<image style="overflow:visible;" width="490" height="271" xlink:href="vs_logo.png"  transform="matrix(0.8677 0 0 0.8677 481.1516 520.215)">
</image>
</svg>
